<mxfile host="app.diagrams.net" modified="2024-03-02T06:40:20.102Z" agent="Mozilla/5.0 (Windows NT 10.0; Win64; x64) AppleWebKit/537.36 (KHTML, like Gecko) Chrome/122.0.0.0 Safari/537.36" version="24.0.0" etag="jDAbm9VlN3nY_DqZx_46" type="github">
  <diagram name="Page-1" id="v1568H5znCouWydCGGyX">
    <mxGraphModel>
      <root>
        <mxCell id="0" />
        <mxCell id="1" parent="0" />
      </root>
    </mxGraphModel>
  </diagram>
</mxfile>
